<svg version="1.1" xmlns="http://www.w3.org/2000/svg" xmlns:xlink="http://www.w3.org/1999/xlink" width="200px" height="105px" viewBox="0,0,256,134.39844"><g fill="#f8cd1e" fill-rule="nonzero" stroke="none" stroke-width="1" stroke-linecap="butt" stroke-linejoin="miter" stroke-miterlimit="10" stroke-dasharray="" stroke-dashoffset="0" font-family="none" font-weight="none" font-size="none" text-anchor="none" style="mix-blend-mode: normal"><g transform="translate(0,-0.00078) scale(1.28,1.28)"><g id="surface1"><path d="M0,52.5v52.5h200v-105h-200zM117.12891,21.875c3.78516,1.00391 5.63672,2.75391 6.61719,6.25391c0.29688,1.08594 0.31641,1.38672 0.10547,1.53516c-0.14844,0.08594 -1.83203,0.23438 -3.72266,0.30078c-1.875,0.08203 -3.57422,0.19141 -3.76562,0.25391c-0.23437,0.06641 -0.40625,-0.14844 -0.59766,-0.76953c-0.33984,-1.12891 -1.33984,-2.26172 -2.27734,-2.55859c-0.42578,-0.14844 -1.38281,-0.21484 -2.14844,-0.17187c-1.25391,0.08594 -1.46875,0.17188 -2,0.76953c-0.74609,0.83203 -0.80859,1.72656 -0.12891,2.32422c0.70312,0.64063 0.74609,0.66406 4.02344,1.47266c1.67969,0.40625 3.66016,0.94141 4.42578,1.19531c3.29688,1.06641 5.48828,2.69141 6.53125,4.84375c0.53125,1.08984 0.59375,1.41016 0.59375,3.54297c0,2.22266 -0.03906,2.43359 -0.67969,3.75781c-1.25391,2.53906 -3.61719,4.375 -6.76562,5.20703c-3.12891,0.83203 -9,0.55469 -11.89453,-0.55469c-1.59375,-0.61719 -3.46484,-2.32812 -4.31641,-3.96875c-0.74609,-1.36719 -1.34375,-3.24609 -1.34375,-4.12109v-0.57422l2.40625,-0.14844c1.29688,-0.06641 3.10547,-0.19531 4,-0.25781l1.59375,-0.12891l0.36328,1.30469c0.63672,2.26172 2.27734,3.43359 4.74609,3.43359c2.76563,-0.01953 4.48828,-2.19922 3.27734,-4.16016c-0.55469,-0.89844 -1.74609,-1.45312 -4.53516,-2.15625c-4.63672,-1.15234 -7.125,-2.24219 -8.76562,-3.83984c-1.44531,-1.39062 -1.87109,-2.41406 -1.97656,-4.71875c-0.08594,-1.83594 -0.04297,-2.04687 0.55078,-3.35156c1.33984,-2.87891 3.95703,-4.5 8.12891,-5.03516c1.91406,-0.25781 6.01953,-0.0625 7.55469,0.32031zM36.10547,22.47266c2.08594,0.70313 3.98047,2.64453 4.57422,4.69531c0.36328,1.30078 0.30078,3.90625 -0.125,5.20703c-0.72656,2.19922 -2.57422,3.96875 -4.89453,4.69531c-1.14844,0.38281 -1.55469,0.70313 -0.83203,0.70313c0.74609,0 2.12891,1.08984 3.17188,2.49609c0.82813,1.11328 5.19141,9.17969 5.19141,9.58594c0,0.03906 -2.14844,0.08203 -4.76562,0.08203c-3.55469,0 -4.80859,-0.0625 -4.95703,-0.27734c-0.12891,-0.125 -1.29687,-2.28125 -2.61719,-4.73828c-1.32031,-2.47266 -2.64062,-4.77734 -2.91406,-5.14062c-0.59766,-0.78906 -1.32031,-1.13281 -2.51172,-1.21875l-0.85156,-0.04297l-0.0625,5.72266l-0.04297,5.69531l-4.32031,-0.04297l-4.29688,-0.0625l-0.0625,-13.9375l-0.04297,-13.93359l9.61719,0.0625c8.44531,0.06641 9.76563,0.12891 10.74219,0.44922zM29.67969,54.84766c5.10937,0.72656 7.46875,2.81641 8.49219,7.49219c0.10547,0.53125 0.0625,0.57422 -0.89453,0.67969c-0.55469,0.08594 -2.38281,0.19531 -4.08594,0.27734l-3.08594,0.15234l-0.25391,-0.96094c-0.33984,-1.25781 -1.38281,-2.17578 -2.80859,-2.49609c-1.80859,-0.38672 -3.46875,0.16797 -3.9375,1.30078c-0.67969,1.57813 0.19141,2.24219 4.29688,3.24219c5.53516,1.34766 7.61719,2.22266 9.40625,3.88672c4.12891,3.86328 2.51172,11.30859 -3,13.82813c-2.25391,1.04688 -3.63672,1.28125 -7.32031,1.25781c-3.61719,-0.01953 -5.67969,-0.38281 -7.72266,-1.36328c-1.27734,-0.64062 -2.91406,-2.37109 -3.66016,-3.90625c-0.55078,-1.13281 -1.40234,-4.12109 -1.23437,-4.28906c0.08594,-0.08594 6.55469,-0.53516 7.51172,-0.53516c0.63672,0 0.70313,0.06641 0.85156,0.78906c0.44531,2.45703 2.25391,3.90625 4.82813,3.90625c1.27734,0 2.21484,-0.38281 3.04297,-1.25781c0.51172,-0.55469 0.64063,-0.875 0.64063,-1.62109c0,-0.75 -0.12891,-1.07031 -0.64062,-1.625c-0.82812,-0.875 -1.42578,-1.10937 -5.29687,-2.13281c-5.29687,-1.38672 -8.01953,-3.03125 -9.27734,-5.63281c-0.76562,-1.58203 -0.74219,-4.22656 0.04297,-5.91406c1.33984,-2.90234 4.17188,-4.67187 8.25391,-5.14062c1.51172,-0.17187 4.40625,-0.12891 5.85156,0.0625zM63.72266,55.16797c3.38281,0.875 5.80859,2.92188 7.40625,6.23047c0.46484,0.98437 0.80859,1.83594 0.74219,1.87891c-0.0625,0.0625 -1.61719,0.44922 -3.48828,0.85547c-1.85156,0.42578 -3.53125,0.80859 -3.70312,0.85156c-0.23438,0.08594 -0.42578,-0.12891 -0.61719,-0.66016c-0.35937,-1.02734 -1.38281,-2.15625 -2.44531,-2.69141c-1.23438,-0.61719 -3.33984,-0.61719 -4.67969,0.02344c-2.21484,1.08594 -3.14844,3.32813 -3.12891,7.48828c0,4.26953 0.78516,6.33984 2.78516,7.40625c0.83203,0.44922 1.19531,0.51172 2.66016,0.44922c1.08594,-0.04297 2,-0.21484 2.51172,-0.46875c0.98047,-0.49219 1.95703,-1.85937 2.53125,-3.56641c0.25781,-0.74609 0.53125,-1.23437 0.68359,-1.19531c0.125,0.04297 1.78516,0.55469 3.69922,1.11328c2.12891,0.63672 3.44922,1.12891 3.44922,1.30078c0,0.14844 -0.21484,0.89453 -0.49219,1.64063c-1.42578,3.90625 -3.97656,6.29688 -7.84766,7.34375c-1.80859,0.49219 -6.68359,0.49219 -8.89453,0c-3.17187,-0.70312 -5.53125,-2.32812 -7.32031,-5.01562c-1.87109,-2.83984 -2.59375,-5.91016 -2.40234,-10.07422c0.14844,-2.98828 0.55078,-4.73828 1.57422,-6.80859c1.72266,-3.47656 5.04297,-5.71875 9.53125,-6.44531c1.55078,-0.25391 5.95703,-0.03906 7.44531,0.34375zM130.27734,55.25391c0.91406,0.23438 2.25391,0.74609 2.97656,1.12891c1.27734,0.68359 3.42578,2.625 4.30078,3.88672l0.42187,0.61719l0.91797,-1.21484c2.31641,-3.05469 5.74219,-4.67578 10.57422,-4.95312c6.55078,-0.40625 12.01953,2.30469 14.0625,6.95703c0.21484,0.46875 0.42578,0.85547 0.48828,0.85547c0.06641,0 0.12891,-1.66406 0.12891,-3.67187v-3.69141l4.32031,-0.0625l4.29688,-0.04297v21.125h13.40625l-0.04297,3.41797l-0.06641,3.41406h-21.91406v-3.73437c0,-2.05078 -0.04297,-3.73828 -0.10547,-3.71484c-0.06641,0 -0.40625,0.66016 -0.78906,1.44922c-2.125,4.46094 -7.48828,7.02344 -13.80859,6.55469c-5.0625,-0.38672 -8.38281,-1.96484 -10.53125,-5.01562l-0.89453,-1.26172l-0.91406,1.23828c-1.63672,2.24219 -3.89453,3.71484 -6.85156,4.52734c-2.35937,0.63672 -7.29687,0.63672 -9.72266,-0.02344c-2.63672,-0.70312 -3.85156,-1.40625 -5.63672,-3.19922c-1.83203,-1.83594 -2.72266,-3.39453 -3.42578,-5.89062c-0.68359,-2.39062 -0.68359,-7.10937 -0.02344,-9.5625c1.42578,-5.25 5.30078,-8.66406 10.78906,-9.53906c1.95703,-0.30078 6.12891,-0.08594 8.04297,0.40625zM87.44531,59.96875v4.91016h9.36328l0.04297,-4.86719l0.0625,-4.84375l4.32031,-0.0625l4.29688,-0.04297l-0.04297,13.97656l-0.0625,14h-8.51172l-0.0625,-5.67578l-0.04297,-5.65625l-4.63672,0.04297l-4.61719,0.0625l-0.10938,5.61328l-0.10547,5.61328l-4.21094,0.04297l-4.19141,0.04297v-28.0625h8.50781zM87.44531,59.96875"></path><path d="M24.46875,30.41016v2.88281h1.91406c3.17188,0 5.04297,-0.55469 5.63672,-1.70703c0.76953,-1.47266 0.04297,-3.30859 -1.48828,-3.75781c-0.46875,-0.14844 -2.01953,-0.27734 -3.44531,-0.27734l-2.61719,-0.01953zM24.46875,30.41016"></path><path d="M123.19141,61.52734c-1.0625,0.33984 -2.61719,1.98438 -3.08594,3.24219c-0.23437,0.70703 -0.40234,1.94531 -0.46875,3.58594c-0.16797,3.84375 0.34375,5.87109 1.89453,7.34375c1.02344,0.98047 2.04297,1.34375 3.85156,1.34375c1.27734,0 1.76563,-0.10547 2.72266,-0.59766c2.27734,-1.15234 3.04297,-3.22266 2.91406,-7.91797c-0.0625,-2.47656 -0.14844,-3.07422 -0.57422,-4.03516c-0.59375,-1.32031 -1.97656,-2.625 -3.16797,-2.98438c-1.02344,-0.32031 -3.08594,-0.30078 -4.08594,0.01953zM123.19141,61.52734"></path><path d="M148.40234,61.57031c-1.29687,0.44922 -2.72266,2.11328 -3.21094,3.75391c-0.51172,1.81641 -0.53125,5.95703 -0.01953,7.68359c0.80469,2.71094 2.61328,4.03516 5.44531,4.03516c1.95703,0 3,-0.42578 4.10547,-1.66406c1.21484,-1.34375 1.55469,-2.75391 1.55469,-6.44531c0,-3.03125 -0.02344,-3.11719 -0.66016,-4.50391c-1.04297,-2.17578 -2.59766,-3.16016 -5.08594,-3.16016c-0.70312,0 -1.66016,0.12891 -2.12891,0.30078zM148.40234,61.57031"></path></g></g></g></svg>