<?xml version="1.0" encoding="UTF-8"?>
<svg xmlns="http://www.w3.org/2000/svg" xmlns:xlink="http://www.w3.org/1999/xlink" width="200px" height="105px" viewBox="0 0 200 105" version="1.1">
<g id="surface1">
<path style=" stroke:none;fill-rule:nonzero;fill:rgb(26.666668%,26.666668%,26.666668%);fill-opacity:1;" d="M 0 52.5 L 0 105 L 200 105 L 200 0 L 0 0 Z M 117.128906 21.875 C 120.914062 22.878906 122.765625 24.628906 123.746094 28.128906 C 124.042969 29.214844 124.0625 29.515625 123.851562 29.664062 C 123.703125 29.75 122.019531 29.898438 120.128906 29.964844 C 118.253906 30.046875 116.554688 30.15625 116.363281 30.21875 C 116.128906 30.285156 115.957031 30.070312 115.765625 29.449219 C 115.425781 28.320312 114.425781 27.1875 113.488281 26.890625 C 113.0625 26.742188 112.105469 26.675781 111.339844 26.71875 C 110.085938 26.804688 109.871094 26.890625 109.339844 27.488281 C 108.59375 28.320312 108.53125 29.214844 109.210938 29.8125 C 109.914062 30.453125 109.957031 30.476562 113.234375 31.285156 C 114.914062 31.691406 116.894531 32.226562 117.660156 32.480469 C 120.957031 33.546875 123.148438 35.171875 124.191406 37.324219 C 124.722656 38.414062 124.785156 38.734375 124.785156 40.867188 C 124.785156 43.089844 124.746094 43.300781 124.105469 44.625 C 122.851562 47.164062 120.488281 49 117.339844 49.832031 C 114.210938 50.664062 108.339844 50.386719 105.445312 49.277344 C 103.851562 48.660156 101.980469 46.949219 101.128906 45.308594 C 100.382812 43.941406 99.785156 42.0625 99.785156 41.1875 L 99.785156 40.613281 L 102.191406 40.464844 C 103.488281 40.398438 105.296875 40.269531 106.191406 40.207031 L 107.785156 40.078125 L 108.148438 41.382812 C 108.785156 43.644531 110.425781 44.816406 112.894531 44.816406 C 115.660156 44.796875 117.382812 42.617188 116.171875 40.65625 C 115.617188 39.757812 114.425781 39.203125 111.636719 38.5 C 107 37.347656 104.511719 36.257812 102.871094 34.660156 C 101.425781 33.269531 101 32.246094 100.894531 29.941406 C 100.808594 28.105469 100.851562 27.894531 101.445312 26.589844 C 102.785156 23.710938 105.402344 22.089844 109.574219 21.554688 C 111.488281 21.296875 115.59375 21.492188 117.128906 21.875 Z M 36.105469 22.472656 C 38.191406 23.175781 40.085938 25.117188 40.679688 27.167969 C 41.042969 28.46875 40.980469 31.074219 40.554688 32.375 C 39.828125 34.574219 37.980469 36.34375 35.660156 37.070312 C 34.511719 37.453125 34.105469 37.773438 34.828125 37.773438 C 35.574219 37.773438 36.957031 38.863281 38 40.269531 C 38.828125 41.382812 43.191406 49.449219 43.191406 49.855469 C 43.191406 49.894531 41.042969 49.9375 38.425781 49.9375 C 34.871094 49.9375 33.617188 49.875 33.46875 49.660156 C 33.339844 49.535156 32.171875 47.378906 30.851562 44.921875 C 29.53125 42.449219 28.210938 40.144531 27.9375 39.78125 C 27.339844 38.992188 26.617188 38.648438 25.425781 38.5625 L 24.574219 38.519531 L 24.511719 44.242188 L 24.46875 49.9375 L 20.148438 49.894531 L 15.851562 49.832031 L 15.789062 35.894531 L 15.746094 21.960938 L 25.363281 22.023438 C 33.808594 22.089844 35.128906 22.152344 36.105469 22.472656 Z M 29.679688 54.847656 C 34.789062 55.574219 37.148438 57.664062 38.171875 62.339844 C 38.277344 62.871094 38.234375 62.914062 37.277344 63.019531 C 36.722656 63.105469 34.894531 63.214844 33.191406 63.296875 L 30.105469 63.449219 L 29.851562 62.488281 C 29.511719 61.230469 28.46875 60.3125 27.042969 59.992188 C 25.234375 59.605469 23.574219 60.160156 23.105469 61.292969 C 22.425781 62.871094 23.296875 63.535156 27.402344 64.535156 C 32.9375 65.882812 35.019531 66.757812 36.808594 68.421875 C 40.9375 72.285156 39.320312 79.730469 33.808594 82.25 C 31.554688 83.296875 30.171875 83.53125 26.488281 83.507812 C 22.871094 83.488281 20.808594 83.125 18.765625 82.144531 C 17.488281 81.503906 15.851562 79.773438 15.105469 78.238281 C 14.554688 77.105469 13.703125 74.117188 13.871094 73.949219 C 13.957031 73.863281 20.425781 73.414062 21.382812 73.414062 C 22.019531 73.414062 22.085938 73.480469 22.234375 74.203125 C 22.679688 76.660156 24.488281 78.109375 27.0625 78.109375 C 28.339844 78.109375 29.277344 77.726562 30.105469 76.851562 C 30.617188 76.296875 30.746094 75.976562 30.746094 75.230469 C 30.746094 74.480469 30.617188 74.160156 30.105469 73.605469 C 29.277344 72.730469 28.679688 72.496094 24.808594 71.472656 C 19.511719 70.085938 16.789062 68.441406 15.53125 65.839844 C 14.765625 64.257812 14.789062 61.613281 15.574219 59.925781 C 16.914062 57.023438 19.746094 55.253906 23.828125 54.785156 C 25.339844 54.613281 28.234375 54.65625 29.679688 54.847656 Z M 63.722656 55.167969 C 67.105469 56.042969 69.53125 58.089844 71.128906 61.398438 C 71.59375 62.382812 71.9375 63.234375 71.871094 63.277344 C 71.808594 63.339844 70.253906 63.726562 68.382812 64.132812 C 66.53125 64.558594 64.851562 64.941406 64.679688 64.984375 C 64.445312 65.070312 64.253906 64.855469 64.0625 64.324219 C 63.703125 63.296875 62.679688 62.167969 61.617188 61.632812 C 60.382812 61.015625 58.277344 61.015625 56.9375 61.65625 C 54.722656 62.742188 53.789062 64.984375 53.808594 69.144531 C 53.808594 73.414062 54.59375 75.484375 56.59375 76.550781 C 57.425781 77 57.789062 77.0625 59.253906 77 C 60.339844 76.957031 61.253906 76.785156 61.765625 76.53125 C 62.746094 76.039062 63.722656 74.671875 64.296875 72.964844 C 64.554688 72.21875 64.828125 71.730469 64.980469 71.769531 C 65.105469 71.8125 66.765625 72.324219 68.679688 72.882812 C 70.808594 73.519531 72.128906 74.011719 72.128906 74.183594 C 72.128906 74.332031 71.914062 75.078125 71.636719 75.824219 C 70.210938 79.730469 67.660156 82.121094 63.789062 83.167969 C 61.980469 83.660156 57.105469 83.660156 54.894531 83.167969 C 51.722656 82.464844 49.363281 80.839844 47.574219 78.152344 C 45.703125 75.3125 44.980469 72.242188 45.171875 68.078125 C 45.320312 65.089844 45.722656 63.339844 46.746094 61.269531 C 48.46875 57.792969 51.789062 55.550781 56.277344 54.824219 C 57.828125 54.570312 62.234375 54.785156 63.722656 55.167969 Z M 130.277344 55.253906 C 131.191406 55.488281 132.53125 56 133.253906 56.382812 C 134.53125 57.066406 136.679688 59.007812 137.554688 60.269531 L 137.976562 60.886719 L 138.894531 59.671875 C 141.210938 56.617188 144.636719 54.996094 149.46875 54.71875 C 156.019531 54.3125 161.488281 57.023438 163.53125 61.675781 C 163.746094 62.144531 163.957031 62.53125 164.019531 62.53125 C 164.085938 62.53125 164.148438 60.867188 164.148438 58.859375 L 164.148438 55.167969 L 168.46875 55.105469 L 172.765625 55.0625 L 172.765625 76.1875 L 186.171875 76.1875 L 186.128906 79.605469 L 186.0625 83.019531 L 164.148438 83.019531 L 164.148438 79.285156 C 164.148438 77.234375 164.105469 75.546875 164.042969 75.570312 C 163.976562 75.570312 163.636719 76.230469 163.253906 77.019531 C 161.128906 81.480469 155.765625 84.042969 149.445312 83.574219 C 144.382812 83.1875 141.0625 81.609375 138.914062 78.558594 L 138.019531 77.296875 L 137.105469 78.535156 C 135.46875 80.777344 133.210938 82.25 130.253906 83.0625 C 127.894531 83.699219 122.957031 83.699219 120.53125 83.039062 C 117.894531 82.335938 116.679688 81.632812 114.894531 79.839844 C 113.0625 78.003906 112.171875 76.445312 111.46875 73.949219 C 110.785156 71.558594 110.785156 66.839844 111.445312 64.386719 C 112.871094 59.136719 116.746094 55.722656 122.234375 54.847656 C 124.191406 54.546875 128.363281 54.761719 130.277344 55.253906 Z M 87.445312 59.96875 L 87.445312 64.878906 L 96.808594 64.878906 L 96.851562 60.011719 L 96.914062 55.167969 L 101.234375 55.105469 L 105.53125 55.0625 L 105.488281 69.039062 L 105.425781 83.039062 L 96.914062 83.039062 L 96.851562 77.363281 L 96.808594 71.707031 L 92.171875 71.75 L 87.554688 71.8125 L 87.445312 77.425781 L 87.339844 83.039062 L 83.128906 83.082031 L 78.9375 83.125 L 78.9375 55.0625 L 87.445312 55.0625 Z M 87.445312 59.96875 "/>
<path style=" stroke:none;fill-rule:nonzero;fill:rgb(26.666668%,26.666668%,26.666668%);fill-opacity:1;" d="M 24.46875 30.410156 L 24.46875 33.292969 L 26.382812 33.292969 C 29.554688 33.292969 31.425781 32.738281 32.019531 31.585938 C 32.789062 30.113281 32.0625 28.277344 30.53125 27.828125 C 30.0625 27.679688 28.511719 27.550781 27.085938 27.550781 L 24.46875 27.53125 Z M 24.46875 30.410156 "/>
<path style=" stroke:none;fill-rule:nonzero;fill:rgb(26.666668%,26.666668%,26.666668%);fill-opacity:1;" d="M 123.191406 61.527344 C 122.128906 61.867188 120.574219 63.511719 120.105469 64.769531 C 119.871094 65.476562 119.703125 66.714844 119.636719 68.355469 C 119.46875 72.199219 119.980469 74.226562 121.53125 75.699219 C 122.554688 76.679688 123.574219 77.042969 125.382812 77.042969 C 126.660156 77.042969 127.148438 76.9375 128.105469 76.445312 C 130.382812 75.292969 131.148438 73.222656 131.019531 68.527344 C 130.957031 66.050781 130.871094 65.453125 130.445312 64.492188 C 129.851562 63.171875 128.46875 61.867188 127.277344 61.507812 C 126.253906 61.1875 124.191406 61.207031 123.191406 61.527344 Z M 123.191406 61.527344 "/>
<path style=" stroke:none;fill-rule:nonzero;fill:rgb(26.666668%,26.666668%,26.666668%);fill-opacity:1;" d="M 148.402344 61.570312 C 147.105469 62.019531 145.679688 63.683594 145.191406 65.324219 C 144.679688 67.140625 144.660156 71.28125 145.171875 73.007812 C 145.976562 75.71875 147.785156 77.042969 150.617188 77.042969 C 152.574219 77.042969 153.617188 76.617188 154.722656 75.378906 C 155.9375 74.035156 156.277344 72.625 156.277344 68.933594 C 156.277344 65.902344 156.253906 65.816406 155.617188 64.429688 C 154.574219 62.253906 153.019531 61.269531 150.53125 61.269531 C 149.828125 61.269531 148.871094 61.398438 148.402344 61.570312 Z M 148.402344 61.570312 "/>
</g>
</svg>
